<?xml version="1.0" encoding="UTF-8" standalone="no"?>
<!-- Created with Inkscape (http://www.inkscape.org/) -->
<svg
   xmlns:dc="http://purl.org/dc/elements/1.1/"
   xmlns:cc="http://creativecommons.org/ns#"
   xmlns:rdf="http://www.w3.org/1999/02/22-rdf-syntax-ns#"
   xmlns:svg="http://www.w3.org/2000/svg"
   xmlns="http://www.w3.org/2000/svg"
   xmlns:sodipodi="http://sodipodi.sourceforge.net/DTD/sodipodi-0.dtd"
   xmlns:inkscape="http://www.inkscape.org/namespaces/inkscape"
   width="250"
   height="250"
   id="svg3319"
   sodipodi:version="0.32"
   inkscape:version="0.46"
   version="1.0"
   sodipodi:docname="nophoto_i.svg"
   inkscape:output_extension="org.inkscape.output.svg.inkscape">
  <defs
     id="defs3321">
    <inkscape:perspective
       sodipodi:type="inkscape:persp3d"
       inkscape:vp_x="0 : 526.18109 : 1"
       inkscape:vp_y="0 : 1000 : 0"
       inkscape:vp_z="744.09448 : 526.18109 : 1"
       inkscape:persp3d-origin="372.04724 : 350.78739 : 1"
       id="perspective3327" />
    <inkscape:perspective
       id="perspective3342"
       inkscape:persp3d-origin="372.04724 : 350.78739 : 1"
       inkscape:vp_z="744.09448 : 526.18109 : 1"
       inkscape:vp_y="0 : 1000 : 0"
       inkscape:vp_x="0 : 526.18109 : 1"
       sodipodi:type="inkscape:persp3d" />
  </defs>
  <sodipodi:namedview
     id="base"
     pagecolor="#ffffff"
     bordercolor="#666666"
     borderopacity="1.0"
     inkscape:pageopacity="0.0"
     inkscape:pageshadow="2"
     inkscape:zoom="2.2429427"
     inkscape:cx="121.97648"
     inkscape:cy="122.44198"
     inkscape:document-units="px"
     inkscape:current-layer="layer1"
     showgrid="false"
     inkscape:window-width="1664"
     inkscape:window-height="844"
     inkscape:window-x="-3"
     inkscape:window-y="-18" />
  <metadata
     id="metadata3324">
    <rdf:RDF>
      <cc:Work
         rdf:about="">
        <dc:format>image/svg+xml</dc:format>
        <dc:type
           rdf:resource="http://purl.org/dc/dcmitype/StillImage" />
        <dc:title>Fotografierverbot</dc:title>
        <dc:date>2008-06-29</dc:date>
        <dc:creator>
          <cc:Agent>
            <dc:title>Torrsten Skomp</dc:title>
          </cc:Agent>
        </dc:creator>
        <dc:rights>
          <cc:Agent>
            <dc:title>Torsten Skomp</dc:title>
          </cc:Agent>
        </dc:rights>
        <dc:publisher>
          <cc:Agent>
            <dc:title>Torsten Skomp</dc:title>
          </cc:Agent>
        </dc:publisher>
        <dc:language>de_DE</dc:language>
        <dc:subject>
          <rdf:Bag>
            <rdf:li>Piktogramm; Fotografierverbot</rdf:li>
          </rdf:Bag>
        </dc:subject>
        <dc:description>Fotografierverbot als Piktogramm </dc:description>
        <cc:license
           rdf:resource="http://creativecommons.org/licenses/publicdomain/" />
      </cc:Work>
      <cc:License
         rdf:about="http://creativecommons.org/licenses/publicdomain/">
        <cc:permits
           rdf:resource="http://creativecommons.org/ns#Reproduction" />
        <cc:permits
           rdf:resource="http://creativecommons.org/ns#Distribution" />
        <cc:permits
           rdf:resource="http://creativecommons.org/ns#DerivativeWorks" />
      </cc:License>
    </rdf:RDF>
  </metadata>
  <g
     inkscape:label="Ebene 1"
     inkscape:groupmode="layer"
     id="layer1">
    <path
       style="fill:#000000;fill-opacity:1"
       d="M 164.53125 62.6875 C 162.79115 62.687501 161.375 64.072416 161.375 65.8125 L 161.375 68.75 L 38.375 68.75 C 35.092298 68.749999 32.46875 71.373548 32.46875 74.65625 L 32.46875 181.375 C 32.46875 184.6577 35.092307 187.31251 38.375 187.3125 L 211.625 187.3125 C 214.90769 187.3125 217.53127 184.6577 217.53125 181.375 L 217.53125 74.65625 C 217.53125 71.373551 214.90768 68.75 211.625 68.75 L 202.0625 68.75 L 202.0625 65.8125 C 202.0625 64.07241 200.64635 62.6875 198.90625 62.6875 L 164.53125 62.6875 z M 46.8125 78 L 88.65625 78 C 90.396342 78 91.8125 79.384907 91.8125 81.125 L 91.8125 96.3125 C 91.8125 98.052592 90.396343 99.4375 88.65625 99.4375 L 46.8125 99.4375 C 45.072408 99.4375 43.6875 98.052593 43.6875 96.3125 L 43.6875 81.125 C 43.6875 79.384908 45.072407 78 46.8125 78 z M 146 88.21875 C 167.73475 88.218753 185.375 106.15071 185.375 128.25 C 185.37499 150.34928 167.73474 168.28125 146 168.28125 C 124.26527 168.28126 106.625 150.34929 106.625 128.25 C 106.625 106.15071 124.26526 88.21875 146 88.21875 z M 146 91.71875 C 126.16557 91.71875 110.0625 108.08289 110.0625 128.25 C 110.0625 148.41711 126.16557 164.78126 146 164.78125 C 165.83443 164.78125 181.9375 148.4171 181.9375 128.25 C 181.9375 108.08289 165.83443 91.71875 146 91.71875 z M 146 96.59375 C 163.17768 96.593752 177.125 110.7842 177.125 128.25 C 177.12499 145.7158 163.17769 159.875 146 159.875 C 128.82231 159.875 114.875 145.7158 114.875 128.25 C 114.875 110.78419 128.82231 96.59375 146 96.59375 z M 176.5 172.71875 L 206.1875 172.71875 C 207.42138 172.71875 208.40625 173.12783 208.40625 173.625 L 208.40625 177.96875 C 208.40625 178.46592 207.42138 178.84375 206.1875 178.84375 L 176.5 178.84375 C 175.26611 178.84375 174.28125 178.46592 174.28125 177.96875 L 174.28125 173.625 C 174.28125 173.12783 175.26612 172.71875 176.5 172.71875 z "
       id="rect3209" />
    <path
       style="fill:#c4261d;fill-opacity:1"
       d="M 20 0 C 18.559938 0 17.164747 0.15098666 15.8125 0.4375 C 15.210291 0.56519578 14.611913 0.72621126 14.03125 0.90625 C 13.554773 1.0539852 13.085349 1.2248536 12.625 1.40625 C 12.328766 1.5230739 12.039033 1.6509182 11.75 1.78125 C 11.347278 1.9623598 10.950406 2.1374165 10.5625 2.34375 C 10.521555 2.3655688 10.478273 2.3841555 10.4375 2.40625 C 10.416934 2.4173754 10.395522 2.4263049 10.375 2.4375 C 9.8326861 2.7333446 9.3226448 3.0632452 8.8125 3.40625 C 8.2831221 3.7621865 7.7727728 4.1589209 7.28125 4.5625 C 7.275055 4.5675866 7.2561888 4.5574061 7.25 4.5625 C 7.2385479 4.5719434 7.2301806 4.5842816 7.21875 4.59375 C 7.1047352 4.6880159 6.9868507 4.7782687 6.875 4.875 C 6.5157021 5.1864264 6.1797909 5.5077091 5.84375 5.84375 C 5.4044025 6.2818078 4.9907449 6.7413554 4.59375 7.21875 C 4.5790086 7.2365462 4.5771806 7.2634015 4.5625 7.28125 C 3.7674898 8.2439181 3.0422721 9.2718705 2.4375 10.375 C 2.4262232 10.395635 2.4174561 10.41682 2.40625 10.4375 C 2.1083908 10.985348 1.8402233 11.547214 1.59375 12.125 C 1.5755865 12.167665 1.5491255 12.207182 1.53125 12.25 C 1.2877131 12.832433 1.0946754 13.421822 0.90625 14.03125 C 0.72963014 14.602495 0.56309634 15.188828 0.4375 15.78125 C 0.14691404 17.142578 -4.3906133e-18 18.549466 0 20 L 0 230 C 0 241.08 8.92 250 20 250 L 230 250 C 231.44006 250 232.83525 249.84901 234.1875 249.5625 C 234.78903 249.43497 235.38866 249.27381 235.96875 249.09375 C 236.44476 248.946 236.91505 248.77526 237.375 248.59375 C 237.67123 248.47693 237.96097 248.34908 238.25 248.21875 C 238.27981 248.20531 238.31402 248.20109 238.34375 248.1875 C 238.75836 247.9983 239.16374 247.80981 239.5625 247.59375 C 239.58318 247.58254 239.60436 247.57378 239.625 247.5625 C 240.16925 247.26512 240.67558 246.93873 241.1875 246.59375 C 241.66878 246.26941 242.14359 245.92639 242.59375 245.5625 C 242.64474 245.52128 242.69943 245.47921 242.75 245.4375 C 242.87651 245.33318 243.00115 245.23235 243.125 245.125 C 243.48265 244.81538 243.82155 244.49019 244.15625 244.15625 C 244.49229 243.82021 244.81357 243.4843 245.125 243.125 C 245.23167 243.00234 245.33381 242.87527 245.4375 242.75 C 245.44276 242.74362 245.43225 242.72513 245.4375 242.71875 C 245.84249 242.2283 246.2364 241.71576 246.59375 241.1875 C 246.93812 240.67843 247.26536 240.16622 247.5625 239.625 C 247.57363 239.60472 247.58268 239.58282 247.59375 239.5625 C 247.89197 239.0148 248.15931 238.45239 248.40625 237.875 C 248.41554 237.85328 248.42829 237.83426 248.4375 237.8125 C 248.44644 237.79129 248.45988 237.77125 248.46875 237.75 C 248.70992 237.17476 248.90628 236.57008 249.09375 235.96875 C 249.27375 235.39137 249.43468 234.81754 249.5625 234.21875 C 249.85309 232.85742 250 231.45053 250 230 L 250 20 C 250 8.92 241.08 -3.3537987e-17 230 0 L 20 0 z M 34.78125 19.40625 L 225.46875 19.40625 C 228.30946 19.40625 230.59375 21.690544 230.59375 24.53125 L 230.59375 215.25 L 34.78125 19.40625 z M 19.40625 34.75 L 215.21875 230.59375 L 24.53125 230.59375 C 21.690544 230.59376 19.40625 228.30946 19.40625 225.46875 L 19.40625 34.75 z "
       id="path3196" />
  </g>
</svg>
